<?xml version="1.0" encoding="utf-8"?>
<!-- Generator: Adobe Illustrator 22.1.0, SVG Export Plug-In . SVG Version: 6.00 Build 0)  -->
<svg version="1.1" id="Capa_1" xmlns="http://www.w3.org/2000/svg" xmlns:xlink="http://www.w3.org/1999/xlink" x="0px" y="0px"
	 viewBox="-49 141 512 512" style="enable-background:new -49 141 512 512;" xml:space="preserve">
<style type="text/css">
	.st0{fill:#FFFFFF;}
</style>
<path class="st0" d="M111,161h274.2c-4,6.4-6.2,13.9-6.2,22v131c0,5.5,4.5,10,10,10s10-4.5,10-10v-31h54c5.5,0,10-4.5,10-10v-90
	c0-23.2-18.8-42-42-42c-1.8,0-7.1,0-8,0H111c-5.5,0-10,4.5-10,10S105.5,161,111,161z M443,183v80h-44v-80c0-12.1,9.9-22,22-22
	S443,170.9,443,183z"/>
<path class="st0" d="M452.1,548.5l-65.3-65.3c7.5-15.4,11.8-32.6,11.8-50.9c0-64-52-116-116-116s-116,52-116,116
	c0,14.6,2.7,28.6,7.7,41.5l-11.7,11.7l-48.1-48.1c-1.9-1.9-4.4-2.9-7.1-2.9c-2.7,0-5.2,1.1-7.1,2.9L89,448.6v-91.3
	c0-5.5-4.5-10-10-10s-10,4.5-10,10v111.3l-90.4,90.4c-3.9,3.9-3.9,10.2,0,14.1c2,2,4.5,2.9,7.1,2.9s5.1-1,7.1-2.9L69,496.9V569H25
	c-5.5,0-10,4.5-10,10v32c0,23.2,18.8,42,42,42h300c23.2,0,42-18.8,42-42v-8.6c7,6.8,16.2,10.5,26.1,10.5c0.1,0,0.1,0,0.2,0
	c10.1,0,19.5-4,26.6-11.1C466.6,587.1,466.7,563.2,452.1,548.5z M186.5,432.3c0-52.9,43.1-96,96-96s96,43.1,96,96s-43.1,96-96,96
	c-36.3,0-68-20.3-84.3-50.2l57.8-57.8V443c0,5.5,4.5,10,10,10s10-4.5,10-10v-48c0-5.5-4.5-10-10-10h-48c-5.5,0-10,4.5-10,10
	c0,5.5,4.5,10,10,10h25l-53,53C187.8,449.8,186.5,441.2,186.5,432.3z M35,611v-22h280v12c0,0.3,0,0.6,0,1c0,0.3,0,0.6,0,1v8.1
	c0,8.1,2.3,15.6,6.2,22H57C44.9,633,35,623.1,35,611z M357,633c-12.1,0-22-9.9-22-22v-8.1c0-0.3,0-0.6,0-1c0-0.3,0-0.6,0-1v-22
	c0-5.5-4.5-10-10-10H89v-92.1l18.3-18.3l48.1,48.1c1.9,1.9,4.4,2.9,7.1,2.9s5.2-1.1,7.1-2.9l14-14c20.4,33.3,57.1,55.5,99,55.5
	c18.2,0,35.4-4.2,50.7-11.7l45.8,45.8V611C379,623.1,369.1,633,357,633z M437.7,587.7c-3.4,3.4-7.8,5.2-12.6,5.2c0,0-0.1,0-0.1,0
	c-4.7,0-9.1-1.8-12.3-5.1L350.8,526c9.6-7.1,18.2-15.6,25.2-25.2l61.8,61.8C444.8,569.5,444.7,580.7,437.7,587.7z"/>
<path class="st0" d="M272.5,495.6c0,5.5,4.5,10,10,10c40.4,0,73.3-32.9,73.3-73.3c0-5.5-4.5-10-10-10s-10,4.5-10,10
	c0,29.4-23.9,53.3-53.3,53.3C277,485.6,272.5,490.1,272.5,495.6z"/>
<path class="st0" d="M-39,333h246.1c5.5,0,10-4.5,10-10s-4.5-10-10-10H198v-67c0-5.5-4.5-10-10-10h-45.9c-5.5,0-10,4.5-10,10v67H116
	V205c0-5.5-4.5-10-10-10H62c-5.5,0-10,4.5-10,10v108H36v-44c0-5.5-4.5-10-10-10h-44c-5.5,0-10,4.5-10,10v44h-11c-5.5,0-10,4.5-10,10
	S-44.5,333-39,333z M152.1,256H178v57h-25.9V256z M72,215h24v98H72V215z M-8,279h24v34H-8V279z"/>
<path class="st0" d="M298.5,205c0-5.5-4.5-10-10-10H211c-5.5,0-10,4.5-10,10c0,5.5,4.5,10,10,10h77.5C294,215,298.5,210.5,298.5,205
	z"/>
<path class="st0" d="M345,197.9c-1.9-1.9-4.4-2.9-7.1-2.9s-5.2,1.1-7.1,2.9c-1.9,1.9-2.9,4.4-2.9,7.1s1.1,5.2,2.9,7.1
	c1.9,1.9,4.4,2.9,7.1,2.9s5.2-1.1,7.1-2.9c1.9-1.9,2.9-4.4,2.9-7.1C347.9,202.4,346.8,199.8,345,197.9z"/>
<path class="st0" d="M233.3,239c-5.5,0-10,4.5-10,10s4.5,10,10,10h16.4c5.5,0,10-4.5,10-10s-4.5-10-10-10H233.3z"/>
<path class="st0" d="M288.5,259h49.5c5.5,0,10-4.5,10-10s-4.5-10-10-10h-49.5c-5.5,0-10,4.5-10,10S282.9,259,288.5,259z"/>
<path class="st0" d="M-39,580.8c-2.6,0-5.2,1.1-7.1,2.9c-1.9,1.9-2.9,4.4-2.9,7.1c0,2.6,1.1,5.2,2.9,7.1c1.9,1.9,4.4,2.9,7.1,2.9
	c2.6,0,5.2-1.1,7.1-2.9c1.9-1.9,2.9-4.4,2.9-7.1c0-2.6-1.1-5.2-2.9-7.1C-33.8,581.8-36.4,580.8-39,580.8z"/>
</svg>
