<svg xmlns="http://www.w3.org/2000/svg" width="68.89" height="61.997" viewBox="0 0 68.89 61.997">
  <g id="layers" transform="translate(0.002 -0.343)">
    <path id="Path_56" data-name="Path 56" d="M1.057,17.429,33.778,31.206a1.735,1.735,0,0,0,1.339,0L67.839,17.429a1.724,1.724,0,0,0,0-3.175L35.117.477a1.741,1.741,0,0,0-1.339,0L1.057,14.254a1.723,1.723,0,0,0,0,3.175Zm33.391-13.5L62.732,15.841,34.448,27.751,6.163,15.842Zm0,0" transform="translate(-0.005)" fill="#eb1c29"/>
    <path id="Path_57" data-name="Path 57" d="M1.1,152.994,33.82,166.771a1.73,1.73,0,0,0,1.339,0l32.722-13.777a1.723,1.723,0,0,0-1.339-3.175l-32.052,13.5-32.053-13.5A1.723,1.723,0,0,0,1.1,152.994Zm0,0" transform="translate(-0.047 -125.232)" fill="#eb1c29"/>
    <path id="Path_58" data-name="Path 58" d="M66.495,213.8,34.443,227.3,2.39,213.8a1.723,1.723,0,0,0-1.338,3.175l32.721,13.778a1.735,1.735,0,0,0,1.339,0l32.722-13.778a1.723,1.723,0,1,0-1.339-3.175Zm0,0" transform="translate(0 -178.881)" fill="#eb1c29"/>
    <path id="Path_59" data-name="Path 59" d="M66.542,277.822l-32.052,13.5-32.053-13.5A1.723,1.723,0,0,0,1.1,281L33.82,294.775a1.735,1.735,0,0,0,1.339,0L67.881,281a1.723,1.723,0,0,0-1.339-3.175Zm0,0" transform="translate(-0.047 -232.569)" fill="#eb1c29"/>
  </g>
</svg>
