<svg xmlns="http://www.w3.org/2000/svg" xmlns:xlink="http://www.w3.org/1999/xlink" width="329.856" height="51.54" viewBox="0 0 329.856 51.54">
  <defs>
    <clipPath id="clip-path">
      <rect id="Rectangle_1" data-name="Rectangle 1" width="329.856" height="51.535" fill="none"/>
    </clipPath>
  </defs>
  <g id="Group_5" data-name="Group 5" transform="translate(-472.692 -236.944)">
    <g id="Group_2" data-name="Group 2" transform="translate(472.692 236.945)">
      <g id="Group_1" data-name="Group 1" clip-path="url(#clip-path)">
        <path id="Path_1" data-name="Path 1" d="M498.463,236.944a25.77,25.77,0,1,0,25.77,25.77,25.77,25.77,0,0,0-25.77-25.77" transform="translate(-472.688 -236.945)" fill="#eb1c29"/>
        <path id="Path_2" data-name="Path 2" d="M495.754,255.84a8.007,8.007,0,0,1-4.19,4.2,7.724,7.724,0,0,1-6.123,0,8.048,8.048,0,0,1-2.5-1.7,8.151,8.151,0,0,1-1.693-2.506,7.8,7.8,0,0,1,0-6.141,8.148,8.148,0,0,1,1.693-2.506,8.033,8.033,0,0,1,2.5-1.7,7.7,7.7,0,0,1,6.123,0,8.007,8.007,0,0,1,4.19,4.2,7.8,7.8,0,0,1,0,6.141m2.027-12.354a13.072,13.072,0,0,0-4.148-2.821,13.25,13.25,0,0,0-10.266,0,13.15,13.15,0,0,0-4.148,2.821,13.487,13.487,0,0,0-2.8,4.176,13.2,13.2,0,0,0,0,10.266,13.117,13.117,0,0,0,6.946,6.946,13.25,13.25,0,0,0,10.266,0,13.4,13.4,0,0,0,4.148-2.8,13.245,13.245,0,0,0,2.8-4.148,13.25,13.25,0,0,0,0-10.266,13.653,13.653,0,0,0-2.8-4.176" transform="translate(-462.728 -227)" fill="#fff"/>
        <path id="Path_3" data-name="Path 3" d="M508.327,236.944a25.77,25.77,0,1,0,25.77,25.77,25.77,25.77,0,0,0-25.77-25.77" transform="translate(-436.165 -236.945)" fill="#eb1c29"/>
        <path id="Path_4" data-name="Path 4" d="M505.615,255.84a8.008,8.008,0,0,1-4.19,4.2,7.724,7.724,0,0,1-6.123,0,8.026,8.026,0,0,1-4.195-4.209,7.8,7.8,0,0,1,0-6.141,8,8,0,0,1,4.195-4.2,7.7,7.7,0,0,1,6.123,0,8.008,8.008,0,0,1,4.19,4.2,7.806,7.806,0,0,1,0,6.141m2.027-12.354a13.074,13.074,0,0,0-4.148-2.821,13.25,13.25,0,0,0-10.266,0,13.154,13.154,0,0,0-4.148,2.821,13.486,13.486,0,0,0-2.8,4.176,13.249,13.249,0,0,0,0,10.266,13.244,13.244,0,0,0,2.8,4.148,13.409,13.409,0,0,0,4.148,2.8,13.25,13.25,0,0,0,10.266,0,13.407,13.407,0,0,0,4.148-2.8,13.241,13.241,0,0,0,2.8-4.148,13.248,13.248,0,0,0,0-10.266,13.65,13.65,0,0,0-2.8-4.176" transform="translate(-426.202 -227)" fill="#fff"/>
        <path id="Path_5" data-name="Path 5" d="M547.782,236.944a25.77,25.77,0,1,0,25.77,25.77,25.77,25.77,0,0,0-25.77-25.77" transform="translate(-290.081 -236.945)" fill="#eb1c29"/>
        <path id="Path_6" data-name="Path 6" d="M545.071,255.84a8.259,8.259,0,0,1-1.693,2.506,8.141,8.141,0,0,1-2.5,1.7,7.5,7.5,0,0,1-3.061.635,7.6,7.6,0,0,1-3.061-.63,8.036,8.036,0,0,1-4.19-4.209,7.743,7.743,0,0,1,0-6.141,8.148,8.148,0,0,1,1.693-2.506,8.066,8.066,0,0,1,2.5-1.7,7.7,7.7,0,0,1,6.123,0,7.966,7.966,0,0,1,4.19,4.2,7.8,7.8,0,0,1,0,6.141m2.027-12.354a13.127,13.127,0,0,0-4.148-2.821,13.249,13.249,0,0,0-10.266,0,13.1,13.1,0,0,0-4.148,2.821,13.485,13.485,0,0,0-2.8,4.176,13.278,13.278,0,0,0,0,10.266,13.145,13.145,0,0,0,6.95,6.946,13.25,13.25,0,0,0,10.266,0,13.113,13.113,0,0,0,6.946-6.946,13.247,13.247,0,0,0,0-10.266,13.652,13.652,0,0,0-2.8-4.176" transform="translate(-280.114 -227)" fill="#fff"/>
        <path id="Path_7" data-name="Path 7" d="M557.646,236.944a25.77,25.77,0,1,0,25.77,25.77,25.77,25.77,0,0,0-25.77-25.77" transform="translate(-253.559 -236.945)" fill="#eb1c29"/>
      </g>
    </g>
    <path id="Path_8" data-name="Path 8" d="M554.938,255.84a8.267,8.267,0,0,1-1.693,2.506,8.147,8.147,0,0,1-2.5,1.7,7.5,7.5,0,0,1-3.061.635,7.605,7.605,0,0,1-3.061-.63,8.159,8.159,0,0,1-2.5-1.7,8.326,8.326,0,0,1-1.693-2.506,7.8,7.8,0,0,1,0-6.141,8.324,8.324,0,0,1,1.693-2.506,8.143,8.143,0,0,1,2.5-1.7,7.7,7.7,0,0,1,6.123,0,7.965,7.965,0,0,1,4.19,4.2,7.8,7.8,0,0,1,0,6.141m2.027-12.354a13.13,13.13,0,0,0-4.148-2.821,13.249,13.249,0,0,0-10.266,0,13.1,13.1,0,0,0-4.148,2.821,13.481,13.481,0,0,0-2.8,4.176,13.225,13.225,0,0,0,0,10.266,13.145,13.145,0,0,0,6.951,6.946,13.25,13.25,0,0,0,10.266,0,13.113,13.113,0,0,0,6.946-6.946,13.248,13.248,0,0,0,0-10.266,13.651,13.651,0,0,0-2.8-4.176" transform="translate(229.096 9.945)" fill="#fff"/>
    <path id="Path_9" data-name="Path 9" d="M518.191,236.944a25.77,25.77,0,1,0,25.77,25.77,25.767,25.767,0,0,0-25.77-25.77" transform="translate(73.048 0)" fill="#eb1c29"/>
    <g id="Group_4" data-name="Group 4" transform="translate(472.692 236.945)">
      <g id="Group_3" data-name="Group 3" clip-path="url(#clip-path)">
        <path id="Path_10" data-name="Path 10" d="M513.794,247.165a8.13,8.13,0,0,1,1.693,2.5,7.5,7.5,0,0,1,.5,1.688h5.29a12.522,12.522,0,0,0-.969-3.762,13.115,13.115,0,0,0-6.946-6.946,12.813,12.813,0,0,0-5.135-1.035,13.06,13.06,0,0,0-5.135,1.011,13.33,13.33,0,0,0-4.171,2.77,12.875,12.875,0,0,0-2.793,4.148,13.2,13.2,0,0,0-1.011,5.187v12.457h5.224V252.366h.019a7.516,7.516,0,0,1,.616-2.7,7.991,7.991,0,0,1,4.19-4.195,7.778,7.778,0,0,1,6.123,0,8.13,8.13,0,0,1,2.5,1.693" transform="translate(-389.65 -227.063)" fill="#fff"/>
        <path id="Path_11" data-name="Path 11" d="M528.054,236.944a25.77,25.77,0,1,0,25.77,25.77,25.773,25.773,0,0,0-25.77-25.77" transform="translate(-363.125 -236.945)" fill="#eb1c29"/>
        <path id="Path_12" data-name="Path 12" d="M511.146,248.4l.216-.353c1.284-2.088,3.56-3.2,6.767-3.3h.009c3.146.033,5.394,1.147,6.673,3.306l.207.348Zm19.116-.419a13.691,13.691,0,0,0-2.629-4.293,12.561,12.561,0,0,0-4.1-2.963,13.6,13.6,0,0,0-10.586-.075,13.562,13.562,0,0,0-4.157,2.8A13.22,13.22,0,0,0,506,247.6a13.374,13.374,0,0,0,0,10.27,13.247,13.247,0,0,0,2.8,4.148,13.565,13.565,0,0,0,4.157,2.8,12.83,12.83,0,0,0,5.135,1.034,15.207,15.207,0,0,0,4.035-.555,12.231,12.231,0,0,0,3.734-1.759,12.45,12.45,0,0,0,3.085-3.132,16.092,16.092,0,0,0,2.083-4.4h-5.765a7.429,7.429,0,0,1-2.671,3.32,8.275,8.275,0,0,1-7.482.715,7.925,7.925,0,0,1-2.478-1.594,8.193,8.193,0,0,1-1.716-2.375,7.265,7.265,0,0,1-.71-2.939l-.01-.24h21.053a14.962,14.962,0,0,0-.983-4.91" transform="translate(-353.176 -227.055)" fill="#fff"/>
        <path id="Path_13" data-name="Path 13" d="M537.918,236.944a25.724,25.724,0,0,1,7.886,1.237V252.6l-.386-.357a8.568,8.568,0,0,0-1.486-1.077,12.691,12.691,0,0,0-1.853-.889,14.645,14.645,0,0,0-2.055-.63,9.459,9.459,0,0,0-2.107-.24,12.872,12.872,0,0,0-5.13,1.035,13.088,13.088,0,0,0-6.95,6.95,13.249,13.249,0,0,0,0,10.266,13.1,13.1,0,0,0,6.95,6.946,12.791,12.791,0,0,0,5.13,1.034,13.131,13.131,0,0,0,9.307-3.785,12.766,12.766,0,0,0,2.8-4.143,13.2,13.2,0,0,0,1.011-5.187V240.532a25.769,25.769,0,1,1-13.115-3.588" transform="translate(-326.603 -236.945)" fill="#eb1c29"/>
      </g>
    </g>
    <path id="Path_14" data-name="Path 14" d="M529.4,254.152a8.126,8.126,0,0,1-2.5,1.693,7.7,7.7,0,0,1-6.123,0,7.992,7.992,0,0,1-4.19-4.195,7.7,7.7,0,0,1,0-6.123,7.961,7.961,0,0,1,4.19-4.19,7.738,7.738,0,0,1,6.123,0,7.948,7.948,0,0,1,4.195,4.19,7.7,7.7,0,0,1,0,6.123,8.133,8.133,0,0,1-1.693,2.5" transform="translate(160.17 13.932)" fill="#eb1c29"/>
    <path id="Path_15" data-name="Path 15" d="M535.841,261.551a7.589,7.589,0,0,1-.63,3.061,7.948,7.948,0,0,1-4.195,4.19,7.7,7.7,0,0,1-6.123,0,7.963,7.963,0,0,1-4.19-4.19,7.7,7.7,0,0,1,0-6.123,7.961,7.961,0,0,1,4.19-4.19,7.738,7.738,0,0,1,6.123,0,7.947,7.947,0,0,1,4.195,4.19,7.573,7.573,0,0,1,.63,3.061m5.229,0V239.562a25.591,25.591,0,0,0-5.229-2.356v14.423l-.385-.362a8.535,8.535,0,0,0-1.481-1.072,13.026,13.026,0,0,0-1.858-.889,13.883,13.883,0,0,0-2.055-.63,9.428,9.428,0,0,0-2.107-.24,12.79,12.79,0,0,0-5.13,1.035,13.069,13.069,0,0,0-6.946,6.946,13.2,13.2,0,0,0,0,10.27,13.071,13.071,0,0,0,6.946,6.946,12.79,12.79,0,0,0,5.13,1.035,13.129,13.129,0,0,0,5.135-1.011,13.392,13.392,0,0,0,4.176-2.774,12.844,12.844,0,0,0,2.793-4.148,13.159,13.159,0,0,0,1.011-5.182" transform="translate(156.052 0.97)" fill="#fff"/>
  </g>
</svg>
