<?xml version="1.0" encoding="utf-8"?>
<!-- Generator: Adobe Illustrator 22.1.0, SVG Export Plug-In . SVG Version: 6.00 Build 0)  -->
<svg version="1.1" id="Capa_1" xmlns="http://www.w3.org/2000/svg" xmlns:xlink="http://www.w3.org/1999/xlink" x="0px" y="0px"
	 viewBox="-49 141 512 512" style="enable-background:new -49 141 512 512;" xml:space="preserve">
<style type="text/css">
	.st0{fill:#FFFFFF;}
</style>
<g>
	<path class="st0" d="M433.6,255.4l-12-3.8c-3-0.8-6-1.5-9.8-1.5c-13.6,0-25.6,9-30.1,21.8l-6.8,20.3v-15.1v-0.8c0-2.3-1.5-4.5-3-6
		L248.4,150.8c-1.5-1.5-3.8-2.3-5.3-2.3H1.4c-4.5,0-7.5,3-7.5,7.5v23.3h-27.9c-4.5,0-7.5,3-7.5,7.5v451c0,4.5,3,7.5,7.5,7.5H332
		c4.5,0,7.5-3,7.5-7.5v-23.3h27.9c4.5,0,7.5-3,7.5-7.5V505.4l21.1-28.6l0.8-2.3l56.5-180C459.2,278,450.2,260.7,433.6,255.4z
		 M250.7,174.1l98.6,94.9h-98.6V174.1z M-26.4,630.4v-436h20.3v412.6c0,4.5,3,7.5,7.5,7.5h323v15.8H-26.4z M359.8,599.5H9v-436
		h226.6v112.9c0,4.5,3,7.5,7.5,7.5h117.5v56.5L325.2,452v2.3l1.5,95.6c0,3,2.3,6,5.3,6.8s6.8,0,8.3-3l20.3-27.1v73H359.8z
		 M341,526.5l-1.5-62.5l37.6,12L341,526.5z M439.7,290.1l-54.2,172.4l-43.7-14.3L396,276.5c3-8.3,12-13.6,20.3-10.5l12,3.8
		C437.4,272,442.7,281.8,439.7,290.1z"/>
	<path class="st0" d="M60.2,284.1h108.4c4.5,0,7.5-3,7.5-7.5v-76.8c0-4.5-3-7.5-7.5-7.5H60.2c-4.5,0-7.5,3-7.5,7.5v76.8
		C52.6,280.3,56.4,284.1,60.2,284.1z M67.7,207.3h93.4V269H67.7V207.3z"/>
	<path class="st0" d="M45.1,354.8H274c4.5,0,7.5-3,7.5-7.5s-3-7.5-7.5-7.5H45.1c-4.5,0-7.5,3-7.5,7.5S40.6,354.8,45.1,354.8z"/>
	<path class="st0" d="M45.1,409.8H274c4.5,0,7.5-3,7.5-7.5s-3-7.5-7.5-7.5H45.1c-4.5,0-7.5,3-7.5,7.5S40.6,409.8,45.1,409.8z"/>
	<path class="st0" d="M45.1,464.8H274c4.5,0,7.5-3,7.5-7.5s-3-7.5-7.5-7.5H45.1c-4.5,0-7.5,3-7.5,7.5S40.6,464.8,45.1,464.8z"/>
	<path class="st0" d="M280.8,512.2c0-4.5-3-7.5-7.5-7.5H45.1c-4.5,0-7.5,3-7.5,7.5s3,7.5,7.5,7.5H274
		C277.8,519.7,280.8,516,280.8,512.2z"/>
	<path class="st0" d="M305.6,559.6H191.9c-4.5,0-7.5,3-7.5,7.5s3,7.5,7.5,7.5h112.9c4.5,0,7.5-3,7.5-7.5S309.4,559.6,305.6,559.6z"
		/>
</g>
</svg>
