<?xml version="1.0" encoding="utf-8"?>
<!-- Generator: Adobe Illustrator 22.1.0, SVG Export Plug-In . SVG Version: 6.00 Build 0)  -->
<svg version="1.1" id="Layer_1" xmlns="http://www.w3.org/2000/svg" xmlns:xlink="http://www.w3.org/1999/xlink" x="0px" y="0px"
	 viewBox="0 0 280 317" style="enable-background:new 0 0 280 317;" xml:space="preserve">
<style type="text/css">
	.st0{fill:#FFFFFF;}
</style>
<g>
	<path class="st0" d="M239,29H40.6C33.1,29,27,35.1,27,42.6v232.8c0,7.5,6.1,13.6,13.6,13.6H239c7.5,0,13.6-6.1,13.6-13.6V42.6
		C252.6,35.1,246.5,29,239,29L239,29z M244.6,275.4c0,3.1-2.5,5.6-5.6,5.6H40.6c-3.1,0-5.6-2.5-5.6-5.6V42.6c0-3.1,2.5-5.6,5.6-5.6
		H239c3.1,0,5.6,2.5,5.6,5.6V275.4z"/>
	<path class="st0" d="M79,201.8H62.2c-7.5,0-13.6,6.1-13.6,13.6v16.8c0,7.5,6.1,13.6,13.6,13.6H79c7.5,0,13.6-6.1,13.6-13.6v-16.8
		C92.6,207.9,86.5,201.8,79,201.8L79,201.8z M84.6,232.2c0,3.1-2.5,5.6-5.6,5.6H62.2c-3.1,0-5.6-2.5-5.6-5.6v-16.8
		c0-3.1,2.5-5.6,5.6-5.6H79c3.1,0,5.6,2.5,5.6,5.6V232.2z"/>
	<path class="st0" d="M90,77.8c-2.5-3.4-6.5-5.6-11-5.6H62.2c-7.5,0-13.6,6.1-13.6,13.6v16.8c0,7.5,6.1,13.6,13.6,13.6H79
		c7.5,0,13.6-6.1,13.6-13.6V85.8c0-0.4,0-0.8-0.1-1.3l10.2-10.2l-4.6-4.6L90,77.8z M84.6,102.6c0,3.1-2.5,5.6-5.6,5.6H62.2
		c-3.1,0-5.6-2.5-5.6-5.6V85.8c0-3.1,2.5-5.6,5.6-5.6H79c2.3,0,4.3,1.4,5.2,3.5L72,95.9l-8.2-8.2l-4.5,4.5l10.9,10.9l0,0l2,2
		l12.5-12.5L84.6,102.6L84.6,102.6z"/>
	<path class="st0" d="M98.1,134.5l-8.1,8.1c-2.5-3.4-6.5-5.6-11-5.6H62.2c-7.5,0-13.6,6.1-13.6,13.6v16.8c0,7.5,6.1,13.6,13.6,13.6
		H79c7.5,0,13.6-6.1,13.6-13.6v-16.8c0-0.4,0-0.8-0.1-1.3l10.2-10.2L98.1,134.5z M84.6,167.4c0,3.1-2.5,5.6-5.6,5.6H62.2
		c-3.1,0-5.6-2.5-5.6-5.6v-16.8c0-3.1,2.5-5.6,5.6-5.6H79c2.3,0,4.3,1.4,5.2,3.5L72,160.7l-8.2-8.2l-4.5,4.5l10.9,10.9l0,0l2,2
		l12.5-12.5L84.6,167.4L84.6,167.4z"/>
	<rect x="110.2" y="76.2" class="st0" width="122.4" height="7.2"/>
	<rect x="110.2" y="90.6" class="st0" width="64.8" height="7.2"/>
	<rect x="110.2" y="148.2" class="st0" width="122.4" height="7.2"/>
	<rect x="110.2" y="162.6" class="st0" width="100.8" height="7.2"/>
	<rect x="110.2" y="213" class="st0" width="115.2" height="7.2"/>
</g>
</svg>
