<svg xmlns="http://www.w3.org/2000/svg" width="56.063" height="78" viewBox="0 0 56.063 78">
  <g id="_30-Graph" data-name="30-Graph" transform="translate(-9)">
    <path id="Path_16" data-name="Path 16" d="M26.531,26.188H19.219A1.219,1.219,0,0,1,18,24.969v-9.75A1.219,1.219,0,0,1,19.219,14h7.313a1.219,1.219,0,0,1,1.219,1.219v9.75A1.219,1.219,0,0,1,26.531,26.188ZM20.438,23.75h4.875V16.438H20.438Z" transform="translate(1.969 3.063)" fill="#eb1c29"/>
    <path id="Path_17" data-name="Path 17" d="M36.531,27.5H29.219A1.219,1.219,0,0,1,28,26.281V9.219A1.219,1.219,0,0,1,29.219,8h7.313A1.219,1.219,0,0,1,37.75,9.219V26.281A1.219,1.219,0,0,1,36.531,27.5Zm-6.094-2.437h4.875V10.438H30.438Z" transform="translate(4.156 1.75)" fill="#eb1c29"/>
    <path id="Path_18" data-name="Path 18" d="M46.531,28.375H39.219A1.219,1.219,0,0,1,38,27.156V5.219A1.219,1.219,0,0,1,39.219,4h7.313A1.219,1.219,0,0,1,47.75,5.219V27.156A1.219,1.219,0,0,1,46.531,28.375Zm-6.094-2.437h4.875V6.438H40.438Z" transform="translate(6.344 0.875)" fill="#eb1c29"/>
    <path id="Path_19" data-name="Path 19" d="M16,22H55v2.438H16Z" transform="translate(1.531 4.813)" fill="#eb1c29"/>
    <path id="Path_20" data-name="Path 20" d="M61.406,75.594H12.656A3.656,3.656,0,0,1,9,71.938V70.719h2.438v1.219a1.219,1.219,0,0,0,1.219,1.219h48.75a1.219,1.219,0,0,0,1.219-1.219V11h2.438V71.938A3.656,3.656,0,0,1,61.406,75.594Z" transform="translate(0 2.406)" fill="#eb1c29"/>
    <path id="Path_21" data-name="Path 21" d="M53,7h2.438V9.438H53Z" transform="translate(9.625 1.531)" fill="#eb1c29"/>
    <path id="Path_22" data-name="Path 22" d="M11.438,70.688H9V8.531a1.219,1.219,0,0,1,.357-.861L16.67.357A1.219,1.219,0,0,1,17.531,0H61.406a3.656,3.656,0,0,1,3.656,3.656V6.094H62.625V3.656a1.219,1.219,0,0,0-1.219-1.219H18.036l-6.6,6.6Z" fill="#eb1c29"/>
    <path id="Path_23" data-name="Path 23" d="M17.531,9.75H10.219a1.219,1.219,0,0,1-.862-2.08L16.67.357a1.219,1.219,0,0,1,2.08.862V8.531A1.219,1.219,0,0,1,17.531,9.75Zm-4.37-2.438h3.152V4.161Z" transform="translate(0 0)" fill="#eb1c29"/>
    <path id="Path_24" data-name="Path 24" d="M32.281,45.5H15.219A1.219,1.219,0,0,1,14,44.281,18.3,18.3,0,0,1,32.281,26,1.219,1.219,0,0,1,33.5,27.219V38.188H31.063v-9.7A15.869,15.869,0,0,0,16.484,43.063H31.063V40.625H33.5v3.656A1.219,1.219,0,0,1,32.281,45.5Z" transform="translate(1.094 5.688)" fill="#eb1c29"/>
    <path id="Path_25" data-name="Path 25" d="M36.281,66.563A18.3,18.3,0,0,1,18,48.281a1.219,1.219,0,0,1,1.219-1.219H30.188V49.5h-9.7A15.844,15.844,0,1,0,37.5,32.484v15.8A1.219,1.219,0,0,1,36.281,49.5H32.625V47.063h2.438V31.219A1.219,1.219,0,0,1,36.281,30a18.281,18.281,0,1,1,0,36.563Z" transform="translate(1.969 6.563)" fill="#eb1c29"/>
    <path id="Path_26" data-name="Path 26" d="M45,26h7.313v2.438H45Z" transform="translate(7.875 5.688)" fill="#eb1c29"/>
    <path id="Path_27" data-name="Path 27" d="M45,30h7.313v2.438H45Z" transform="translate(7.875 6.563)" fill="#eb1c29"/>
    <path id="Path_28" data-name="Path 28" d="M13,54h7.313v2.438H13Z" transform="translate(0.875 11.813)" fill="#eb1c29"/>
    <path id="Path_29" data-name="Path 29" d="M13,58h7.313v2.438H13Z" transform="translate(0.875 12.688)" fill="#eb1c29"/>
    <path id="Path_30" data-name="Path 30" d="M43.016,45.83l-1.723-1.723,6.955-6.955V34h2.438v3.656a1.219,1.219,0,0,1-.357.861Z" transform="translate(7.064 7.438)" fill="#eb1c29"/>
    <path id="Path_31" data-name="Path 31" d="M24.656,61.686H21V59.248h3.152l6.955-6.955,1.723,1.723-7.313,7.313a1.219,1.219,0,0,1-.862.357Z" transform="translate(2.625 11.439)" fill="#eb1c29"/>
    <path id="Path_32" data-name="Path 32" d="M0,0H2.438V17.236H0Z" transform="translate(37.378 55.705) rotate(-45)" fill="#eb1c29"/>
  </g>
</svg>
