<?xml version="1.0" encoding="utf-8"?>
<!-- Generator: Adobe Illustrator 22.1.0, SVG Export Plug-In . SVG Version: 6.00 Build 0)  -->
<svg version="1.1" id="Capa_1" xmlns="http://www.w3.org/2000/svg" xmlns:xlink="http://www.w3.org/1999/xlink" x="0px" y="0px"
	 viewBox="-49 141 512 512" style="enable-background:new -49 141 512 512;" xml:space="preserve">
<style type="text/css">
	.st0{fill:#FFFFFF;}
</style>
<path class="st0" d="M451.3,276.6L417.7,243c-15.5-15.5-40.8-15.5-56.3,0l-55.3,55.3l-18.2-56c-1.7-5.3-5.4-9.6-10.3-12.1
	c-4.9-2.5-10.6-3-15.8-1.2L224,241.3c-1,0.3-2.1,0.1-2.8-0.6c-6.5-5.8-13.7-11-21.2-15.4c-0.9-0.5-1.4-1.5-1.4-2.5V183
	c0-11.4-9.3-20.7-20.7-20.7H89.5c-11.4,0-20.7,9.3-20.7,20.7v39.9c0,1-0.5,2-1.4,2.5c-7.5,4.4-14.7,9.6-21.2,15.4
	c-0.8,0.7-1.8,0.9-2.8,0.6L5.4,229c-10.9-3.5-22.6,2.4-26.1,13.3L-48,326.3c-1.7,5.3-1.3,10.9,1.2,15.8c2.5,4.9,6.8,8.6,12.1,10.3
	l37.9,12.3c1,0.3,1.7,1.1,2,2.1c1.9,8.6,4.6,16.9,8.1,25c0.4,0.9,0.3,2-0.3,2.9l-23.4,32.2c-3.3,4.5-4.6,10-3.7,15.4
	c0.9,5.5,3.8,10.3,8.3,13.5l36.5,26.5c1.3,1,2.9,1.4,4.4,1.4c2.3,0,4.6-1.1,6.1-3.1c2.4-3.4,1.7-8-1.7-10.5L2.9,443.7
	c-1.2-0.9-2.1-2.2-2.3-3.7c-0.2-1.5,0.1-3,1-4.3l23.4-32.2c3.7-5.1,4.5-11.9,1.9-17.7c-3.1-7.1-5.5-14.5-7.2-22.1
	c-1.3-6.2-5.9-11.3-12-13.2L-30,338.1c-1.5-0.5-2.6-1.5-3.3-2.9c-0.7-1.4-0.8-2.9-0.3-4.4L-6.4,247c1-3,4.2-4.7,7.2-3.7l37.9,12.3
	c6,2,12.7,0.6,17.5-3.6c5.8-5.2,12.1-9.7,18.8-13.7c5.5-3.2,8.8-9.1,8.8-15.5V183c0-3.2,2.6-5.7,5.7-5.7h88.3c3.2,0,5.7,2.6,5.7,5.7
	v39.8c0,6.4,3.4,12.3,8.9,15.5c6.7,3.9,13,8.5,18.8,13.7c4.7,4.2,11.4,5.6,17.5,3.6l37.9-12.3c1.5-0.5,3-0.4,4.4,0.3
	c1.4,0.7,2.4,1.9,2.9,3.3l20.6,63.3l-61.4,61.4c-5.4,5.4-7.9,13.1-6.7,20.7l1.3,8.2c0.6,4-0.7,8-3.5,10.9l-7.1,7.1l-1.5-1.5
	c-7.7-7.7-20.2-7.7-27.9,0l-9.8,9.8c-7.7,7.7-7.7,20.2,0,27.9l15,15l-14.8,14.8l-16.3-22.4c-3.7-5.1-10-7.9-16.3-7.3
	c-7.8,0.8-15.5,0.8-23.3,0c-6.3-0.6-12.5,2.2-16.3,7.3l-23.4,32.2c-0.9,1.2-2.2,2.1-3.7,2.3c-1.5,0.2-3-0.1-4.3-1L68,491
	c-3.4-2.4-8-1.7-10.5,1.7c-2.4,3.4-1.7,8,1.7,10.5l6.3,4.6c3.6,2.6,7.8,4,12.1,4c1.1,0,2.2-0.1,3.3-0.3c5.5-0.9,10.3-3.8,13.5-8.3
	l23.4-32.2c0.6-0.8,1.6-1.3,2.6-1.2c8.7,0.9,17.5,0.9,26.3,0c1-0.1,2,0.4,2.6,1.2l17.7,24.3l-40.2,40.2c-1.5,1.5-3.2,2.6-5.1,3.3
	l-33,12.7c-7.1,2.7-12.6,8.4-15.1,15.6l-10.2,29.3c-2,5.8-0.5,12.4,3.8,16.7l14,14c3.1,3.1,7.2,4.7,11.5,4.7c1.8,0,3.5-0.3,5.3-0.9
	l29.3-10.2c7.2-2.5,12.9-8,15.6-15.1l12.7-33c0.7-1.9,1.8-3.6,3.3-5.1l65.7-65.7l15,15c3.9,3.9,8.9,5.8,14,5.8
	c5.1,0,10.1-1.9,14-5.8l9.8-9.8c7.7-7.7,7.7-20.2,0-27.9l-1.5-1.5l7.1-7.1c2.8-2.8,6.9-4.2,10.9-3.5l8.2,1.3
	c7.5,1.2,15.3-1.3,20.7-6.7l128.6-128.6c7.5-7.5,11.7-17.5,11.7-28.1C463,294.1,458.9,284.2,451.3,276.6z M148.3,556.9
	c-2.9,2.9-5.2,6.4-6.7,10.3l-12.7,33c-1.1,3-3.5,5.3-6.5,6.3l-29.3,10.2c-0.4,0.1-0.9,0-1.2-0.3l-14-14c-0.3-0.3-0.4-0.8-0.3-1.2
	l10.2-29.3c1-3,3.3-5.4,6.3-6.5l33-12.7c3.9-1.5,7.4-3.7,10.3-6.7l65.7-65.7l10.8,10.8L148.3,556.9z M266.7,496.3l-9.8,9.8
	c-1.9,1.9-4.9,1.9-6.7,0L230,485.9c0,0,0,0,0,0s0,0,0,0l-21.4-21.4c0,0,0,0,0,0s0,0,0,0l-20.3-20.3c-1.9-1.9-1.9-4.9,0-6.7l9.8-9.8
	c1.9-1.9,4.9-1.9,6.7,0l6.8,6.8c0,0,0,0,0,0c0,0,0,0,0,0l55.1,55.1C268.6,491.4,268.6,494.4,266.7,496.3z M440.7,322.3L312.2,450.9
	c-2,2-4.9,2.9-7.6,2.5l-8.2-1.3c-8.7-1.4-17.6,1.5-23.9,7.7l-7.1,7.1l-37.7-37.7l7.1-7.1c6.2-6.2,9.1-15.2,7.7-23.9l-1.3-8.2
	c-0.5-2.8,0.5-5.6,2.5-7.6l128.6-128.6c9.7-9.7,25.4-9.7,35,0l33.6,33.6c4.7,4.7,7.3,10.9,7.3,17.5
	C448,311.4,445.4,317.6,440.7,322.3z M133.7,406.6c37.3,0,67.7-30.4,67.7-67.7s-30.4-67.7-67.7-67.7S66,301.6,66,338.9
	S96.4,406.6,133.7,406.6z M133.7,286.2c29,0,52.7,23.6,52.7,52.7c0,29-23.6,52.7-52.7,52.7S81,367.9,81,338.9
	C81,309.9,104.6,286.2,133.7,286.2z M133.7,382.8c24.2,0,43.9-19.7,43.9-43.9S157.9,295,133.7,295s-43.9,19.7-43.9,43.9
	S109.5,382.8,133.7,382.8z M133.7,310c15.9,0,28.9,13,28.9,28.9s-13,28.9-28.9,28.9s-28.9-13-28.9-28.9S117.7,310,133.7,310z
	 M389.1,282.7c-6,0-11.7,2.4-16,6.6l-95.8,95.8c-8.8,8.8-8.8,23.2,0,32c4.3,4.3,10,6.6,16,6.6c6,0,11.7-2.4,16-6.6l64.3-64.3
	c2.9-2.9,2.9-7.7,0-10.6c-2.9-2.9-7.7-2.9-10.6,0l-64.3,64.3c-1.4,1.4-3.4,2.2-5.4,2.2c-2,0-4-0.8-5.4-2.2c-1.4-1.4-2.2-3.4-2.2-5.4
	c0-2,0.8-4,2.2-5.4l95.8-95.8c1.4-1.4,3.4-2.2,5.4-2.2s4,0.8,5.4,2.2c1.4,1.4,2.2,3.4,2.2,5.4s-0.8,4-2.2,5.4l-6.8,6.8
	c-2.9,2.9-2.9,7.7,0,10.6c2.9,2.9,7.7,2.9,10.6,0l6.8-6.8c4.3-4.3,6.6-10,6.6-16s-2.4-11.7-6.6-16
	C400.8,285.1,395.1,282.7,389.1,282.7z"/>
</svg>
